<svg xmlns="http://www.w3.org/2000/svg" id="logoInk" viewBox="0 0 200 88"><defs><style>.cls-1{fill:#1b1f3b}</style></defs><title>icon-logo</title><path d="M180.24,20.8a.8.8,0,0,0-.8-.8h-4a.8.8,0,0,0-.8.8v15c0,.24-.28.32-.36.08l-5.48-15.2a1,1,0,0,0-1-.72H163a.8.8,0,0,0-.8.8V47.19a.8.8,0,0,0,.8.81h4a.8.8,0,0,0,.8-.81V33.36c0-.24.28-.32.36-.08l5.44,14a1,1,0,0,0,1.08.68h4.72a.8.8,0,0,0,.8-.81V20.8ZM157.8,43.4a.8.8,0,0,0-.8-.8h-3.4a.38.38,0,0,1-.4-.4V25.8a.38.38,0,0,1,.4-.4h3a.8.8,0,0,0,.8-.8V20.8a.8.8,0,0,0-.8-.8H144.2a.8.8,0,0,0-.8.8v3.8a.8.8,0,0,0,.8.8h3a.38.38,0,0,1,.4.4V42.2a.38.38,0,0,1-.4.4h-3.4a.8.8,0,0,0-.8.8v3.79a.8.8,0,0,0,.8.81H157a.8.8,0,0,0,.8-.81V43.4ZM122,26H6.5a.5.5,0,0,0-.5.5v55a.5.5,0,0,0,.5.5h115a.5.5,0,0,0,.5-.5V26ZM200,3V65a3,3,0,0,1-3,3H128V85a3,3,0,0,1-3,3H3a3,3,0,0,1-3-3V23a3,3,0,0,1,3-3H122V3a3,3,0,0,1,3-3h72a3,3,0,0,1,3,3ZM104.27,62.4H94.8a.38.38,0,0,1-.4-.4V57.2a.38.38,0,0,1,.4-.4h9a.8.8,0,0,0,.8-.8V52a.8.8,0,0,0-.8-.8h-9a.38.38,0,0,1-.4-.4V46a.38.38,0,0,1,.4-.4h9.31a.8.8,0,0,0,.8-.8v-4a.8.8,0,0,0-.8-.8H89.6a.8.8,0,0,0-.8.8V67.2a.81.81,0,0,0,.8.8h14.67a.81.81,0,0,0,.8-.8v-4a.8.8,0,0,0-.8-.8ZM83.56,40h-4a.8.8,0,0,0-.8.8v15c0,.24-.28.32-.36.08l-5.48-15.2a1,1,0,0,0-1-.72H67.16a.8.8,0,0,0-.8.8V67.2a.81.81,0,0,0,.8.8h4a.81.81,0,0,0,.8-.8V53.36c0-.24.28-.32.36-.08l5.44,14a1,1,0,0,0,1.08.68h4.72a.81.81,0,0,0,.79-.8V40.8a.8.8,0,0,0-.79-.8ZM61,40H57a.8.8,0,0,0-.8.8V59.6c0,1.76-1.44,3.2-3.88,3.2s-3.8-1.44-3.8-3.2V40.8a.8.8,0,0,0-.8-.8h-4a.8.8,0,0,0-.8.8V59.6c0,4.84,4,8.83,9.44,8.83s9.52-4,9.52-8.83V40.8A.8.8,0,0,0,61,40Zm-22,.8v4a.8.8,0,0,1-.8.8h-5a.38.38,0,0,0-.4.4V67.2a.81.81,0,0,1-.8.8H28a.81.81,0,0,1-.8-.8V46a.38.38,0,0,0-.4-.4h-5a.8.8,0,0,1-.8-.8v-4a.8.8,0,0,1,.8-.8H38.2a.8.8,0,0,1,.8.8Z" class="cls-1"/></svg>